<svg xmlns="http://www.w3.org/2000/svg" viewBox="0 0 64 64">
  <circle cx="32" cy="32" r="32" fill="#06060f"/>
  <!-- Wheel segments (simplified 6-segment wheel) -->
  <path d="M32 32 L32 4 A28 28 0 0 1 56.2 18 Z" fill="#FF6B35"/>
  <path d="M32 32 L56.2 18 A28 28 0 0 1 56.2 46 Z" fill="#FFD23F"/>
  <path d="M32 32 L56.2 46 A28 28 0 0 1 32 60 Z" fill="#2EC4B6"/>
  <path d="M32 32 L32 60 A28 28 0 0 1 7.8 46 Z" fill="#E71D36"/>
  <path d="M32 32 L7.8 46 A28 28 0 0 1 7.8 18 Z" fill="#7B2FBE"/>
  <path d="M32 32 L7.8 18 A28 28 0 0 1 32 4 Z" fill="#1B998B"/>
  <!-- Outer ring -->
  <circle cx="32" cy="32" r="28" fill="none" stroke="#c8960c" stroke-width="2.5"/>
  <!-- Center hub -->
  <circle cx="32" cy="32" r="7" fill="#c8960c"/>
  <circle cx="32" cy="32" r="4.5" fill="#06060f"/>
</svg>
